PathFileType	4	(X/Y/Z)	joints.trc
DataRate	CameraRate	NumFrames	NumMarkers	Units	OrigDataRate	OrigDataStartFrame	OrigNumFrames
30.0	30.0	10	24	m	30.0	41	120
Frame#	Time	pelvis			femur_r			tibia_r			talus_r			calcn_r			toes_r			femur_l			tibia_l			talus_l			calcn_l			toes_l			lumbar_body			thorax			head			scapula_r			humerus_r			ulna_r			radius_r			hand_r			scapula_l			humerus_l			ulna_l			radius_l			hand_l		
		X1	Y1	Z1	X2	Y2	Z2	X3	Y3	Z3	X4	Y4	Z4	X5	Y5	Z5	X6	Y6	Z6	X7	Y7	Z7	X8	Y8	Z8	X9	Y9	Z9	X10	Y10	Z10	X11	Y11	Z11	X12	Y12	Z12	X13	Y13	Z13	X14	Y14	Z14	X15	Y15	Z15	X16	Y16	Z16	X17	Y17	Z17	X18	Y18	Z18	X19	Y19	Z19	X20	Y20	Z20	X21	Y21	Z21	X22	Y22	Z22	X23	Y23	Z23	X24	Y24	Z24
41	1.333333	0.037297	0.835245	0.024733	-0.035031	0.784083	-0.065747	-0.107459	0.422697	0.096465	-0.138669	0.082656	-0.160060	-0.146657	0.063747	-0.216354	-0.175256	0.004606	-0.020774	0.113553	0.779212	-0.049218	0.128081	0.418397	0.138949	0.230786	0.078460	-0.108771	0.252630	0.055259	-0.169566	0.244016	0.005928	0.025620	0.036203	1.006541	-0.034485	-0.003358	1.279559	0.113634	-0.010573	1.430122	0.154428	-0.144356	1.301260	0.072236	-0.135795	1.262920	0.057917	-0.188073	1.067920	-0.154716	-0.185655	1.070168	-0.170649	-0.220773	0.865105	-0.319560	0.168513	1.271542	0.124934	0.172562	1.243954	0.092878	0.262078	1.059015	-0.066774	0.272576	1.064199	-0.063466	0.361333	0.824929	-0.173619
42	1.366667	0.037560	0.794474	0.019966	-0.035258	0.742415	-0.067972	-0.108040	0.396998	0.132228	-0.140205	0.081230	-0.153440	-0.148150	0.066395	-0.209338	-0.177570	0.001697	-0.016845	0.113650	0.737219	-0.051961	0.121544	0.394296	0.169035	0.234758	0.078685	-0.108738	0.258092	0.059679	-0.169540	0.248211	0.003938	0.022604	0.036614	0.963279	-0.041266	-0.001614	1.233620	0.107064	-0.006692	1.384173	0.149836	-0.143675	1.251661	0.073274	-0.135329	1.212844	0.059617	-0.194267	1.002976	-0.135890	-0.192532	1.004563	-0.149936	-0.236983	0.785389	-0.273295	0.170334	1.221105	0.119295	0.173651	1.193643	0.087415	0.258663	0.995050	-0.060847	0.268933	1.000259	-0.056780	0.351017	0.754336	-0.146728
43	1.400000	0.038063	0.767303	0.020002	-0.035521	0.713659	-0.063917	-0.106303	0.376087	0.157782	-0.140277	0.080282	-0.149792	-0.148518	0.068591	-0.205263	-0.177837	-0.000369	-0.015370	0.113480	0.708144	-0.049799	0.115446	0.372527	0.186539	0.238195	0.077803	-0.111833	0.262913	0.061951	-0.172569	0.251645	0.001964	0.016730	0.036868	0.933190	-0.045237	0.001183	1.203737	0.096902	-0.000649	1.355650	0.137940	-0.140935	1.219738	0.070151	-0.133297	1.180287	0.058192	-0.202835	0.951852	-0.112443	-0.202056	0.952684	-0.123643	-0.259766	0.715741	-0.205834	0.173587	1.188796	0.109132	0.176051	1.160866	0.078301	0.257157	0.946932	-0.052414	0.267099	0.951891	-0.047390	0.341931	0.696780	-0.107541
44	1.433333	0.038088	0.756664	0.025845	-0.036207	0.701628	-0.054729	-0.103098	0.364208	0.170678	-0.141370	0.080306	-0.148643	-0.150306	0.070519	-0.203760	-0.179271	-0.001768	-0.016130	0.112923	0.695635	-0.042190	0.110200	0.358176	0.193258	0.240852	0.076270	-0.114496	0.266634	0.062178	-0.175173	0.254725	-0.000307	0.012077	0.036992	0.920900	-0.043630	0.004585	1.194833	0.089946	0.005186	1.348961	0.124728	-0.137498	1.211869	0.067899	-0.131215	1.171911	0.058044	-0.216196	0.929188	-0.086482	-0.216604	0.929606	-0.094282	-0.290734	0.680414	-0.123570	0.177983	1.180966	0.099727	0.179964	1.152115	0.070458	0.261534	0.926630	-0.042295	0.271138	0.931139	-0.036027	0.342390	0.669679	-0.057761
45	1.466667	0.037277	0.777965	0.038273	-0.037506	0.721828	-0.040688	-0.097793	0.372867	0.163514	-0.142903	0.079837	-0.145341	-0.152814	0.068701	-0.200470	-0.182085	-0.003197	-0.012979	0.111798	0.716123	-0.029182	0.110858	0.366245	0.180973	0.241323	0.076821	-0.115348	0.266514	0.062200	-0.176138	0.257769	-0.003286	0.010710	0.036208	0.943004	-0.034346	0.006335	1.222288	0.090077	0.008689	1.378842	0.115093	-0.135063	1.245326	0.068766	-0.130990	1.205317	0.060741	-0.236468	0.958879	-0.066113	-0.238161	0.959526	-0.070605	-0.329681	0.710758	-0.043557	0.180843	1.213593	0.095882	0.183486	1.183571	0.068305	0.275709	0.954989	-0.030856	0.285133	0.959084	-0.023233	0.361379	0.701654	-0.004776
46	1.500000	0.036250	0.836973	0.056405	-0.038687	0.779455	-0.020706	-0.099336	0.407855	0.133970	-0.146051	0.085171	-0.142560	-0.156405	0.071165	-0.198461	-0.183977	-0.004125	-0.013894	0.111077	0.775130	-0.011046	0.123029	0.404131	0.149111	0.243360	0.086447	-0.117092	0.266446	0.069771	-0.178118	0.262490	-0.002504	0.008262	0.033783	1.004063	-0.020091	0.006189	1.291444	0.089446	0.010691	1.450308	0.103052	-0.133610	1.323168	0.063945	-0.131910	1.283308	0.057780	-0.256401	1.040455	-0.064420	-0.259287	1.041818	-0.067100	-0.369445	0.804177	-0.000195	0.181498	1.290756	0.086991	0.185502	1.259155	0.061996	0.293621	1.035505	-0.032617	0.303320	1.039215	-0.024386	0.394952	0.791018	0.020855
47	1.533333	0.035814	0.935192	0.078065	-0.039899	0.876998	0.003399	-0.108901	0.482067	0.091262	-0.149981	0.111917	-0.118124	-0.161656	0.094900	-0.175149	-0.175316	0.002330	-0.001406	0.110692	0.874271	0.009233	0.151786	0.475707	0.100110	0.249559	0.110512	-0.100562	0.270318	0.090818	-0.159306	0.264640	0.002138	0.018433	0.031146	1.104505	-0.004292	0.008410	1.402343	0.083268	0.013752	1.561369	0.084412	-0.130671	1.439555	0.050040	-0.130629	1.399777	0.046476	-0.266663	1.161465	-0.070935	-0.270360	1.163729	-0.073332	-0.396977	0.944075	0.007608	0.182759	1.407057	0.071028	0.187522	1.373714	0.049922	0.305567	1.154768	-0.037755	0.315628	1.158174	-0.029636	0.425454	0.919078	0.031133
48	1.566667	0.034776	1.060267	0.096356	-0.040153	1.002002	0.021015	-0.118148	0.594682	0.044420	-0.166493	0.169730	-0.059079	-0.182609	0.148952	-0.114435	-0.173175	0.036134	0.021608	0.109327	1.001395	0.026390	0.171324	0.587058	0.048067	0.253782	0.173621	-0.054823	0.274992	0.150966	-0.103524	0.256619	0.042158	0.034560	0.029004	1.232498	0.010957	0.009893	1.532924	0.080922	0.015201	1.687830	0.067866	-0.127816	1.572380	0.037597	-0.129476	1.532777	0.036728	-0.278417	1.293575	-0.072148	-0.282879	1.296383	-0.073868	-0.424196	1.089381	0.025707	0.183039	1.539954	0.059362	0.188624	1.505299	0.041526	0.315327	1.290148	-0.039686	0.325599	1.293448	-0.031637	0.450055	1.065844	0.041456
49	1.600000	0.035447	1.153303	0.103634	-0.039948	1.096816	0.025809	-0.120887	0.695306	0.020073	-0.192659	0.260865	-0.007079	-0.210154	0.233846	-0.058099	-0.208656	0.135929	0.068746	0.110446	1.096879	0.030583	0.175726	0.686014	0.020795	0.270327	0.260734	-0.017442	0.290085	0.233130	-0.061191	0.287095	0.135362	0.069884	0.029729	1.327868	0.019197	0.011314	1.628867	0.083840	0.016711	1.779557	0.066735	-0.124980	1.668051	0.036040	-0.128241	1.628802	0.035993	-0.289922	1.399467	-0.069538	-0.294938	1.402923	-0.071203	-0.446491	1.210551	0.030019	0.183550	1.638398	0.060555	0.190409	1.603523	0.043743	0.329584	1.396710	-0.033888	0.340045	1.400199	-0.025929	0.475140	1.184119	0.047638
50	1.633333	0.036185	1.207779	0.103297	-0.039630	1.151739	0.025948	-0.122533	0.752200	0.021323	-0.205427	0.320522	0.005073	-0.222691	0.292488	-0.044595	-0.230247	0.199967	0.080035	0.111012	1.151929	0.028956	0.179771	0.743880	0.020079	0.285520	0.323417	-0.009061	0.304533	0.295260	-0.051507	0.312204	0.202475	0.078056	0.028921	1.382348	0.018719	0.010119	1.682878	0.082659	0.015335	1.832820	0.065791	-0.125739	1.722363	0.033447	-0.129571	1.683369	0.033585	-0.295488	1.462623	-0.071734	-0.300831	1.466614	-0.073339	-0.459260	1.285485	0.028172	0.182444	1.695198	0.060637	0.190132	1.660363	0.043734	0.336119	1.462586	-0.037328	0.346593	1.466258	-0.029314	0.486351	1.256748	0.044434
